# Exported from Wings 3D 2.2.9
mtllib terrain.mtl
o grid1
#124 vertices, 240 faces
v -6.00000000 0.10000000 -6.00000000
v -5.50000000 0.10000000 -6.00000000
v -5.00000000 0.10000000 -6.00000000
v -4.50000000 0.10000000 -6.00000000
v -4.00000000 0.10000000 -6.00000000
v -3.50000000 0.10000000 -6.00000000
v -3.00000000 0.10000000 -6.00000000
v -2.50000000 0.10000000 -6.00000000
v -2.00000000 0.10000000 -6.00000000
v -1.50000000 0.10000000 -6.00000000
v -1.00000000 0.10000000 -6.00000000
v -0.50000000 0.10000000 -6.00000000
v 0.0000000e+0 0.10000000 -6.00000000
v 0.50000000 0.10000000 -6.00000000
v 1.00000000 0.10000000 -6.00000000
v 1.50000000 0.10000000 -6.00000000
v 2.00000000 0.10000000 -6.00000000
v 2.50000000 0.10000000 -6.00000000
v 3.00000000 0.10000000 -6.00000000
v 3.50000000 0.10000000 -6.00000000
v 4.00000000 0.10000000 -6.00000000
v 4.50000000 0.10000000 -6.00000000
v 5.00000000 0.10000000 -6.00000000
v 5.50000000 0.10000000 -6.00000000
v 6.00000000 0.10000000 -6.00000000
v -6.00000000 0.10000000 -5.50000000
v 6.00000000 0.10000000 -5.50000000
v -6.00000000 0.10000000 -5.00000000
v 6.00000000 0.10000000 -5.00000000
v -6.00000000 0.10000000 -4.50000000
v 6.00000000 0.10000000 -4.50000000
v -6.00000000 0.10000000 -4.00000000
v 6.00000000 0.10000000 -4.00000000
v -6.00000000 0.10000000 -3.50000000
v -4.00000000 0.10000000 -3.50000000
v -3.50000000 0.10000000 -3.50000000
v -3.00000000 0.10000000 -3.50000000
v -2.50000000 0.10000000 -3.50000000
v 6.00000000 0.10000000 -3.50000000
v -6.00000000 0.10000000 -3.00000000
v -4.00000000 0.10000000 -3.00000000
v -2.50000000 0.10000000 -3.00000000
v 6.00000000 0.10000000 -3.00000000
v -6.00000000 0.10000000 -2.50000000
v -4.00000000 0.10000000 -2.50000000
v -2.50000000 0.10000000 -2.50000000
v 6.00000000 0.10000000 -2.50000000
v -6.00000000 0.10000000 -2.00000000
v -4.00000000 0.10000000 -2.00000000
v -3.50000000 0.10000000 -2.00000000
v -3.00000000 0.10000000 -2.00000000
v -2.50000000 0.10000000 -2.00000000
v 6.00000000 0.10000000 -2.00000000
v -6.00000000 0.10000000 -1.50000000
v 6.00000000 0.10000000 -1.50000000
v -6.00000000 0.10000000 -1.00000000
v 6.00000000 0.10000000 -1.00000000
v -6.00000000 0.10000000 -0.50000000
v 6.00000000 0.10000000 -0.50000000
v -6.00000000 0.10000000 0.0000000e+0
v 6.00000000 0.10000000 0.0000000e+0
v -6.00000000 0.10000000 0.50000000
v 6.00000000 0.10000000 0.50000000
v -6.00000000 0.10000000 1.00000000
v 6.00000000 0.10000000 1.00000000
v -6.00000000 0.10000000 1.50000000
v 6.00000000 0.10000000 1.50000000
v -6.00000000 0.10000000 2.00000000
v 6.00000000 0.10000000 2.00000000
v -6.00000000 0.10000000 2.50000000
v 6.00000000 0.10000000 2.50000000
v -6.00000000 0.10000000 3.00000000
v 6.00000000 0.10000000 3.00000000
v -6.00000000 0.10000000 3.50000000
v 6.00000000 0.10000000 3.50000000
v -6.00000000 0.10000000 4.00000000
v 6.00000000 0.10000000 4.00000000
v -6.00000000 0.10000000 4.50000000
v 6.00000000 0.10000000 4.50000000
v -6.00000000 0.10000000 5.00000000
v 6.00000000 0.10000000 5.00000000
v -6.00000000 0.10000000 5.50000000
v 6.00000000 0.10000000 5.50000000
v -6.00000000 0.10000000 6.00000000
v -5.50000000 0.10000000 6.00000000
v -5.00000000 0.10000000 6.00000000
v -4.50000000 0.10000000 6.00000000
v -4.00000000 0.10000000 6.00000000
v -3.50000000 0.10000000 6.00000000
v -3.00000000 0.10000000 6.00000000
v -2.50000000 0.10000000 6.00000000
v -2.00000000 0.10000000 6.00000000
v -1.50000000 0.10000000 6.00000000
v -1.00000000 0.10000000 6.00000000
v -0.50000000 0.10000000 6.00000000
v 0.0000000e+0 0.10000000 6.00000000
v 0.50000000 0.10000000 6.00000000
v 1.00000000 0.10000000 6.00000000
v 1.50000000 0.10000000 6.00000000
v 2.00000000 0.10000000 6.00000000
v 2.50000000 0.10000000 6.00000000
v 3.00000000 0.10000000 6.00000000
v 3.50000000 0.10000000 6.00000000
v 4.00000000 0.10000000 6.00000000
v 4.50000000 0.10000000 6.00000000
v 5.00000000 0.10000000 6.00000000
v 5.50000000 0.10000000 6.00000000
v 6.00000000 0.10000000 6.00000000
v -6.00000000 -0.10000000 -6.00000000
v 6.00000000 -0.10000000 -6.00000000
v -6.00000000 -0.10000000 6.00000000
v 6.00000000 -0.10000000 6.00000000
v -3.50000000 3.10000000 -3.50000000
v -3.00000000 3.10000000 -3.50000000
v -4.00000000 3.10000000 -3.00000000
v -2.50000000 3.10000000 -3.00000000
v -4.00000000 3.10000000 -2.50000000
v -2.50000000 3.10000000 -2.50000000
v -3.50000000 3.10000000 -2.00000000
v -3.00000000 3.10000000 -2.00000000
v -2.50000000 3.10000000 -2.00000000
v -2.50000000 3.10000000 -3.50000000
v -4.00000000 3.10000000 -3.50000000
v -4.00000000 3.10000000 -2.00000000
vt 0.0000000e+0 0.0000000e+0
vt 0.0000000e+0 7.6768417e-2
vt 0.0000000e+0 0.15353683
vt 0.0000000e+0 0.46061050
vt 0.0000000e+0 0.85416667
vt 0.0000000e+0 0.87500000
vt 0.0000000e+0 0.89583333
vt 0.0000000e+0 0.99166667
vt 0.0000000e+0 1.00000000
vt 1.1102230e-16 0.99166667
vt 1.5959456e-16 0.0000000e+0
vt 1.5959456e-16 0.23030525
vt 1.5959456e-16 0.46061050
vt 2.2204460e-16 0.83333333
vt 2.2204460e-16 0.91666667
vt 2.3592239e-16 0.46061050
vt 4.4408921e-16 0.81250000
vt 6.1062266e-16 0.79166667
vt 6.1062266e-16 0.93750000
vt 6.6613381e-16 0.77083333
vt 8.8817842e-16 0.75000000
vt 1.0547119e-15 0.72916667
vt 1.2559398e-15 0.0000000e+0
vt 1.2767565e-15 0.70833333
vt 1.3322676e-15 0.95833333
vt 1.5543122e-15 0.68750000
vt 1.6514567e-15 0.46061050
vt 2.1094237e-15 0.66666667
vt 2.6645353e-15 0.64583333
vt 3.1086245e-15 0.97916667
vt 3.3306691e-15 0.62500000
vt 3.9968029e-15 0.60416667
vt 4.7739590e-15 0.58333333
vt 5.8009153e-15 0.56250000
vt 6.9111383e-15 0.54166667
vt 7.7715612e-15 1.00000000
vt 8.0213614e-15 0.52083333
vt 8.6874952e-15 1.00000000
vt 8.9650509e-15 0.50000000
vt 2.0833333e-2 1.00000000
vt 2.0833333e-2 1.00000000
vt 2.0833333e-2 1.00000000
vt 2.0833333e-2 0.50000000
vt 4.1666667e-2 1.00000000
vt 4.1666667e-2 1.00000000
vt 4.1666667e-2 1.00000000
vt 4.1666667e-2 0.50000000
vt 6.2500000e-2 1.00000000
vt 6.2500000e-2 1.00000000
vt 6.2500000e-2 1.00000000
vt 6.2500000e-2 0.50000000
vt 7.6768417e-2 0.46061050
vt 7.6768417e-2 0.0000000e+0
vt 7.6768417e-2 3.8857806e-16
vt 7.6768417e-2 0.23030525
vt 7.6768417e-2 0.46061050
vt 7.6768417e-2 3.8857806e-16
vt 7.6768417e-2 0.46061050
vt 7.6768417e-2 0.0000000e+0
vt 7.6768417e-2 0.46061050
vt 8.3333333e-2 1.00000000
vt 8.3333333e-2 1.00000000
vt 8.3333333e-2 1.00000000
vt 8.3333333e-2 0.50000000
vt 0.10416667 1.00000000
vt 0.10416667 1.00000000
vt 0.10416667 1.00000000
vt 0.10416667 0.50000000
vt 0.12500000 1.00000000
vt 0.12500000 1.00000000
vt 0.12500000 1.00000000
vt 0.12500000 0.50000000
vt 0.14583333 1.00000000
vt 0.14583333 1.00000000
vt 0.14583333 1.00000000
vt 0.14583333 0.50000000
vt 0.15353683 0.46061050
vt 0.15353683 0.0000000e+0
vt 0.15353683 3.8857806e-16
vt 0.15353683 0.23030525
vt 0.15353683 0.46061050
vt 0.15353683 3.8857806e-16
vt 0.15353683 0.46061050
vt 0.15353683 0.0000000e+0
vt 0.15353683 0.46061050
vt 0.16666667 1.00000000
vt 0.16666667 1.00000000
vt 0.16666667 1.00000000
vt 0.16666667 0.50000000
vt 0.18750000 1.00000000
vt 0.18750000 1.00000000
vt 0.18750000 1.00000000
vt 0.18750000 0.50000000
vt 0.20833333 1.00000000
vt 0.20833333 1.00000000
vt 0.20833333 1.00000000
vt 0.20833333 0.50000000
vt 0.22916667 1.00000000
vt 0.22916667 1.00000000
vt 0.22916667 1.00000000
vt 0.22916667 0.50000000
vt 0.23030525 0.46061050
vt 0.23030525 0.0000000e+0
vt 0.23030525 8.6042284e-16
vt 0.23030525 7.6768417e-2
vt 0.23030525 0.46061050
vt 0.23030525 0.15353683
vt 0.23030525 0.23030525
vt 0.23030525 8.6042284e-16
vt 0.23030525 0.46061050
vt 0.23030525 0.0000000e+0
vt 0.23030525 0.46061050
vt 0.25000000 1.00000000
vt 0.25000000 0.93750000
vt 0.25000000 0.97916667
vt 0.25000000 1.00000000
vt 0.25000000 0.95833333
vt 0.25000000 1.00000000
vt 0.25000000 1.00000000
vt 0.25000000 0.50000000
vt 0.27083333 1.00000000
vt 0.27083333 1.00000000
vt 0.27083333 0.93750000
vt 0.27083333 1.00000000
vt 0.27083333 1.00000000
vt 0.27083333 0.50000000
vt 0.29166667 1.00000000
vt 0.29166667 1.00000000
vt 0.29166667 0.93750000
vt 0.29166667 1.00000000
vt 0.29166667 1.00000000
vt 0.29166667 0.50000000
vt 0.31250000 1.00000000
vt 0.31250000 0.97916667
vt 0.31250000 1.00000000
vt 0.31250000 0.93750000
vt 0.31250000 0.95833333
vt 0.31250000 1.00000000
vt 0.31250000 1.00000000
vt 0.31250000 0.50000000
vt 0.33333333 1.00000000
vt 0.33333333 1.00000000
vt 0.33333333 1.00000000
vt 0.33333333 0.50000000
vt 0.35416667 1.00000000
vt 0.35416667 1.00000000
vt 0.35416667 1.00000000
vt 0.35416667 0.50000000
vt 0.37500000 1.00000000
vt 0.37500000 1.00000000
vt 0.37500000 1.00000000
vt 0.37500000 0.50000000
vt 0.39583333 1.00000000
vt 0.39583333 1.00000000
vt 0.39583333 1.00000000
vt 0.39583333 0.50000000
vt 0.41666667 1.00000000
vt 0.41666667 1.00000000
vt 0.41666667 1.00000000
vt 0.41666667 0.50000000
vt 0.43750000 1.00000000
vt 0.43750000 1.00000000
vt 0.43750000 1.00000000
vt 0.43750000 0.50000000
vt 0.45833333 1.00000000
vt 0.45833333 1.00000000
vt 0.45833333 1.00000000
vt 0.45833333 0.50000000
vt 0.47916667 1.00000000
vt 0.47916667 1.00000000
vt 0.47916667 1.00000000
vt 0.47916667 0.50000000
vt 0.50000000 1.00000000
vt 0.50000000 1.00000000
vt 0.50000000 0.97916667
vt 0.50000000 0.95833333
vt 0.50000000 0.93750000
vt 0.50000000 0.91666667
vt 0.50000000 0.89583333
vt 0.50000000 0.87500000
vt 0.50000000 0.85416667
vt 0.50000000 0.83333333
vt 0.50000000 0.81250000
vt 0.50000000 0.79166667
vt 0.50000000 0.77083333
vt 0.50000000 0.75000000
vt 0.50000000 0.72916667
vt 0.50000000 1.00000000
vt 0.50000000 0.70833333
vt 0.50000000 0.99166667
vt 0.50000000 0.99166667
vt 0.50000000 0.68750000
vt 0.50000000 0.66666667
vt 0.50000000 0.64583333
vt 0.50000000 0.62500000
vt 0.50000000 0.60416667
vt 0.50000000 0.58333333
vt 0.50000000 0.56250000
vt 0.50000000 0.54166667
vt 0.50000000 0.52083333
vt 0.50000000 0.50000000
vt 0.50000000 0.50000000
vt 0.50000000 1.00000000
vt 1.00000000 0.50000000
vt 1.00000000 1.00000000
vn -0.57735027 0.57735027 -0.57735027
vn 0.0000000e+0 0.70710678 -0.70710678
vn 0.0000000e+0 0.89442719 -0.44721360
vn 0.0000000e+0 0.83205029 -0.55470020
vn 0.0000000e+0 0.83205029 -0.55470020
vn 0.0000000e+0 0.83205029 -0.55470020
vn 0.0000000e+0 0.83205029 -0.55470020
vn 0.0000000e+0 0.83205029 -0.55470020
vn 0.0000000e+0 0.83205029 -0.55470020
vn 0.0000000e+0 0.83205029 -0.55470020
vn 0.0000000e+0 0.83205029 -0.55470020
vn 0.0000000e+0 0.83205029 -0.55470020
vn 0.0000000e+0 0.80000000 -0.60000000
vn 0.0000000e+0 0.83205029 -0.55470020
vn 0.0000000e+0 0.83205029 -0.55470020
vn 0.0000000e+0 0.83205029 -0.55470020
vn 0.0000000e+0 0.83205029 -0.55470020
vn 0.0000000e+0 0.83205029 -0.55470020
vn 0.0000000e+0 0.83205029 -0.55470020
vn 0.0000000e+0 0.83205029 -0.55470020
vn 0.0000000e+0 0.83205029 -0.55470020
vn 0.0000000e+0 0.83205029 -0.55470020
vn 0.0000000e+0 0.83205029 -0.55470020
vn 0.0000000e+0 0.83205029 -0.55470020
vn 0.57735027 0.57735027 -0.57735027
vn -0.55470020 0.83205029 0.0000000e+0
vn 0.70710678 0.70710678 0.0000000e+0
vn -0.70710678 0.70710678 0.0000000e+0
vn 0.55470020 0.83205029 0.0000000e+0
vn -0.55470020 0.83205029 -1.0264015e-17
vn 0.55470020 0.83205029 -1.0264015e-17
vn -0.55470020 0.83205029 7.6980116e-18
vn 0.55470020 0.83205029 7.6980116e-18
vn -0.55470020 0.83205029 6.1584093e-18
vn -0.40824829 -0.40824829 -0.81649658
vn 0.0000000e+0 -0.70710678 -0.70710678
vn 0.0000000e+0 -0.80000000 -0.60000000
vn 0.81649658 -0.40824829 -0.40824829
vn 0.55470020 0.83205029 6.1584093e-18
vn -0.55470020 0.83205029 -1.5396023e-17
vn -0.83205029 -0.55470020 0.0000000e+0
vn 0.60000000 -0.80000000 0.0000000e+0
vn 0.55470020 0.83205029 -1.5396023e-17
vn -0.55470020 0.83205029 4.3988638e-18
vn -0.60000000 -0.80000000 0.0000000e+0
vn 0.83205029 -0.55470020 0.0000000e+0
vn 0.55470020 0.83205029 4.3988638e-18
vn -0.55470020 0.83205029 3.8490058e-18
vn -0.81649658 -0.40824829 0.40824829
vn 0.0000000e+0 -0.80000000 0.60000000
vn 0.0000000e+0 -0.70710678 0.70710678
vn 0.40824829 -0.40824829 0.81649658
vn 0.55470020 0.83205029 3.8490058e-18
vn -0.55470020 0.83205029 3.4213385e-18
vn 0.55470020 0.83205029 3.4213385e-18
vn -0.55470020 0.83205029 3.0792046e-18
vn 0.55470020 0.83205029 3.0792046e-18
vn -0.55470020 0.83205029 -8.3978309e-18
vn 0.55470020 0.83205029 -8.3978309e-18
vn -0.51449576 0.85749293 0.0000000e+0
vn 0.51449576 0.85749293 0.0000000e+0
vn -0.55470020 0.83205029 8.3978309e-18
vn 0.55470020 0.83205029 8.3978309e-18
vn -0.55470020 0.83205029 -3.0792046e-18
vn 0.55470020 0.83205029 -3.0792046e-18
vn -0.55470020 0.83205029 -3.4213385e-18
vn 0.55470020 0.83205029 -3.4213385e-18
vn -0.55470020 0.83205029 -3.8490058e-18
vn 0.55470020 0.83205029 -3.8490058e-18
vn -0.55470020 0.83205029 -4.3988638e-18
vn 0.55470020 0.83205029 -4.3988638e-18
vn -0.55470020 0.83205029 1.5396023e-17
vn 0.55470020 0.83205029 1.5396023e-17
vn -0.55470020 0.83205029 -6.1584093e-18
vn 0.55470020 0.83205029 -6.1584093e-18
vn -0.55470020 0.83205029 -7.6980116e-18
vn 0.55470020 0.83205029 -7.6980116e-18
vn -0.55470020 0.83205029 1.0264015e-17
vn 0.55470020 0.83205029 1.0264015e-17
vn -0.55470020 0.83205029 0.0000000e+0
vn 0.55470020 0.83205029 0.0000000e+0
vn -0.70710678 0.70710678 0.0000000e+0
vn 0.70710678 0.70710678 0.0000000e+0
vn -0.57735027 0.57735027 0.57735027
vn 0.0000000e+0 0.83205029 0.55470020
vn 0.0000000e+0 0.83205029 0.55470020
vn 0.0000000e+0 0.83205029 0.55470020
vn 0.0000000e+0 0.83205029 0.55470020
vn 0.0000000e+0 0.83205029 0.55470020
vn 0.0000000e+0 0.83205029 0.55470020
vn 0.0000000e+0 0.83205029 0.55470020
vn 0.0000000e+0 0.83205029 0.55470020
vn 0.0000000e+0 0.83205029 0.55470020
vn 0.0000000e+0 0.83205029 0.55470020
vn 0.0000000e+0 0.83205029 0.55470020
vn 0.0000000e+0 0.80000000 0.60000000
vn 0.0000000e+0 0.83205029 0.55470020
vn 0.0000000e+0 0.83205029 0.55470020
vn 0.0000000e+0 0.83205029 0.55470020
vn 0.0000000e+0 0.83205029 0.55470020
vn 0.0000000e+0 0.83205029 0.55470020
vn 0.0000000e+0 0.83205029 0.55470020
vn 0.0000000e+0 0.83205029 0.55470020
vn 0.0000000e+0 0.83205029 0.55470020
vn 0.0000000e+0 0.83205029 0.55470020
vn 0.0000000e+0 0.83205029 0.55470020
vn 0.0000000e+0 0.83205029 0.55470020
vn 0.57735027 0.57735027 0.57735027
vn -0.70295949 -0.10814761 -0.70295949
vn 0.70606308 -5.4312545e-2 -0.70606308
vn -0.70606308 -5.4312545e-2 0.70606308
vn 0.70295949 -0.10814761 0.70295949
vn 0.0000000e+0 0.80000000 -0.60000000
vn 0.0000000e+0 0.70710678 -0.70710678
vn -0.60000000 0.80000000 0.0000000e+0
vn 0.83205029 0.55470020 0.0000000e+0
vn -0.83205029 0.55470020 0.0000000e+0
vn 0.60000000 0.80000000 0.0000000e+0
vn 0.0000000e+0 0.70710678 0.70710678
vn 0.0000000e+0 0.80000000 0.60000000
vn 0.81649658 0.40824829 0.40824829
vn 0.40824829 0.40824829 -0.81649658
vn -0.81649658 0.40824829 -0.40824829
vn -0.40824829 0.40824829 0.81649658
g grid1_grid1_auv
usemtl grid1_auv
s 1
f 1/38/1 26/30/26 2/42/2
f 1/36/1 109/8/109 26/41/26
f 2/42/2 26/30/26 3/46/3
f 2/171/2 109/191/109 1/173/1
f 3/46/3 30/19/30 4/50/4
f 3/167/3 109/191/109 2/171/2
f 4/50/4 32/15/32 5/61/5
f 4/163/4 109/191/109 3/167/3
f 5/61/5 34/7/34 6/65/6
f 5/159/5 109/191/109 4/163/4
f 6/65/6 40/6/40 7/69/7
f 6/155/6 109/191/109 5/159/5
f 7/69/7 44/5/44 8/73/8
f 7/151/7 109/191/109 6/155/6
f 8/73/8 48/14/48 9/86/9
f 8/147/8 109/191/109 7/151/7
f 9/86/9 54/17/54 10/90/10
f 9/143/9 109/191/109 8/147/8
f 10/90/10 56/18/56 11/94/11
f 10/139/10 109/191/109 9/143/9
f 11/94/11 58/20/58 12/98/12
f 11/131/11 109/191/109 10/139/10
f 12/98/12 60/21/60 13/113/13
f 12/125/12 109/191/109 11/131/11
f 13/113/13 60/21/60 96/120/96
f 13/113/13 61/186/61 14/121/14
f 13/119/13 109/191/109 12/125/12
f 14/121/14 59/185/59 15/127/15
f 14/100/14 110/10/110 13/119/13
f 15/127/15 57/184/57 16/133/16
f 15/96/15 110/10/110 14/100/14
f 16/133/16 55/183/55 17/141/17
f 16/92/16 110/10/110 15/96/15
f 17/141/17 53/182/53 18/145/18
f 17/88/17 110/10/110 16/92/16
f 18/145/18 47/181/47 19/149/19
f 18/75/18 110/10/110 17/88/17
f 19/149/19 43/180/43 20/153/20
f 19/71/19 110/10/110 18/75/18
f 20/153/20 39/179/39 21/157/21
f 20/67/20 110/10/110 19/71/19
f 21/157/21 33/178/33 22/161/22
f 21/63/21 110/10/110 20/67/20
f 22/161/22 31/177/31 23/165/23
f 22/49/22 110/10/110 21/63/21
f 23/165/23 29/176/29 24/169/24
f 23/45/23 110/10/110 22/49/22
f 24/169/24 27/175/27 25/174/25
f 24/40/24 110/10/110 23/45/23
f 25/9/25 110/10/110 24/40/24
f 26/41/26 109/8/109 28/44/28
f 27/175/27 24/169/24 29/176/29
f 27/171/27 110/191/110 25/173/25
f 28/25/28 3/46/3 26/30/26
f 28/44/28 109/8/109 30/48/30
f 29/176/29 23/165/23 31/177/31
f 29/167/29 110/191/110 27/171/27
f 30/19/30 3/46/3 28/25/28
f 30/48/30 109/8/109 32/62/32
f 31/177/31 22/161/22 33/178/33
f 31/163/31 110/191/110 29/167/29
f 32/15/32 4/50/4 30/19/30
f 32/62/32 109/8/109 34/66/34
f 33/178/33 21/157/21 39/179/39
f 33/159/33 110/191/110 31/163/31
f 34/7/34 5/61/5 32/15/32
f 34/66/34 109/8/109 40/70/40
f 35/109/35 113/83/113 36/82/36
f 36/128/36 41/134/41 35/135/35
f 36/82/36 114/58/114 37/57/37
f 37/122/37 45/137/45 36/128/36
f 37/57/37 122/16/122 38/1/38
f 38/116/38 42/115/42 37/122/37
f 38/104/38 116/81/116 42/79/42
f 39/179/39 20/153/20 43/180/43
f 39/155/39 110/191/110 33/159/33
f 40/6/40 6/65/6 34/7/34
f 40/70/40 109/8/109 44/74/44
f 41/134/41 36/128/36 45/137/45
f 41/53/41 123/27/123 35/1/35
f 42/115/42 50/129/50 37/122/37
f 42/79/42 118/56/118 46/54/46
f 43/180/43 19/149/19 47/181/47
f 43/151/43 110/191/110 39/155/39
f 44/5/44 7/69/7 40/6/40
f 44/74/44 109/8/109 48/87/48
f 45/137/45 37/122/37 50/129/50
f 45/137/45 50/129/50 49/136/49
f 45/78/45 115/60/115 41/53/41
f 46/117/46 51/123/51 42/115/42
f 46/54/46 121/13/121 52/1/52
f 47/181/47 18/145/18 53/182/53
f 47/147/47 110/191/110 43/151/43
f 48/14/48 8/73/8 44/5/44
f 48/87/48 109/8/109 54/91/54
f 49/103/49 117/85/117 45/78/45
f 50/129/50 42/115/42 51/123/51
f 50/59/50 124/4/124 49/23/49
f 51/84/51 119/52/119 50/59/50
f 52/114/52 51/123/51 46/117/46
f 52/111/52 120/77/120 51/84/51
f 53/182/53 17/141/17 55/183/55
f 53/143/53 110/191/110 47/147/47
f 54/17/54 9/86/9 48/14/48
f 54/91/54 109/8/109 56/95/56
f 55/183/55 16/133/16 57/184/57
f 55/139/55 110/191/110 53/143/53
f 56/18/56 10/90/10 54/17/54
f 56/95/56 109/8/109 58/99/58
f 57/184/57 15/127/15 59/185/59
f 57/131/57 110/191/110 55/139/55
f 58/20/58 11/94/11 56/18/56
f 58/99/58 109/8/109 60/118/60
f 59/185/59 14/121/14 61/186/61
f 59/125/59 110/191/110 57/131/57
f 60/21/60 12/98/12 58/20/58
f 60/118/60 111/190/111 62/124/62
f 61/186/61 13/113/13 96/120/96
f 61/186/61 97/126/97 63/187/63
f 61/119/61 110/191/110 59/125/59
f 62/22/62 95/101/95 60/21/60
f 62/124/62 111/190/111 64/130/64
f 63/187/63 98/132/98 65/189/65
f 63/100/63 112/10/112 61/119/61
f 64/24/64 94/97/94 62/22/62
f 64/130/64 111/190/111 66/138/66
f 65/189/65 99/140/99 67/192/67
f 65/96/65 112/10/112 63/100/63
f 66/26/66 93/93/93 64/24/64
f 66/138/66 111/190/111 68/142/68
f 67/192/67 100/144/100 69/193/69
f 67/92/67 112/10/112 65/96/65
f 68/28/68 92/89/92 66/26/66
f 68/142/68 111/190/111 70/146/70
f 69/193/69 101/148/101 71/194/71
f 69/88/69 112/10/112 67/92/67
f 70/29/70 91/76/91 68/28/68
f 70/146/70 111/190/111 72/150/72
f 71/194/71 102/152/102 73/195/73
f 71/75/71 112/10/112 69/88/69
f 72/31/72 90/72/90 70/29/70
f 72/150/72 111/190/111 74/154/74
f 73/195/73 103/156/103 75/196/75
f 73/71/73 112/10/112 71/75/71
f 74/32/74 89/68/89 72/31/72
f 74/154/74 111/190/111 76/158/76
f 75/196/75 104/160/104 77/197/77
f 75/67/75 112/10/112 73/71/73
f 76/33/76 88/64/88 74/32/74
f 76/158/76 111/190/111 78/162/78
f 77/197/77 105/164/105 79/198/79
f 77/63/77 112/10/112 75/67/75
f 78/34/78 87/51/87 76/33/76
f 78/162/78 111/190/111 80/166/80
f 79/198/79 106/168/106 81/199/81
f 79/49/79 112/10/112 77/63/77
f 80/35/80 86/47/86 78/34/78
f 80/166/80 111/190/111 82/170/82
f 81/199/81 107/172/107 83/200/83
f 81/45/81 112/10/112 79/49/79
f 82/37/82 85/43/85 80/35/80
f 82/170/82 111/190/111 84/188/84
f 83/200/83 107/172/107 108/202/108
f 83/40/83 112/10/112 81/45/81
f 84/39/84 85/43/85 82/37/82
f 84/36/84 111/8/111 85/41/85
f 85/41/85 111/8/111 86/44/86
f 86/47/86 80/35/80 85/43/85
f 86/44/86 111/8/111 87/48/87
f 87/51/87 78/34/78 86/47/86
f 87/48/87 111/8/111 88/62/88
f 88/64/88 76/33/76 87/51/87
f 88/62/88 111/8/111 89/66/89
f 89/68/89 74/32/74 88/64/88
f 89/66/89 111/8/111 90/70/90
f 90/72/90 72/31/72 89/68/89
f 90/70/90 111/8/111 91/74/91
f 91/76/91 70/29/70 90/72/90
f 91/74/91 111/8/111 92/87/92
f 92/89/92 68/28/68 91/76/91
f 92/87/92 111/8/111 93/91/93
f 93/93/93 66/26/66 92/89/92
f 93/91/93 111/8/111 94/95/94
f 94/97/94 64/24/64 93/93/93
f 94/95/94 111/8/111 95/99/95
f 95/101/95 62/22/62 94/97/94
f 95/99/95 111/8/111 96/118/96
f 96/120/96 60/21/60 95/101/95
f 96/118/96 112/190/112 97/124/97
f 97/126/97 61/186/61 96/120/96
f 97/124/97 112/190/112 98/130/98
f 98/132/98 63/187/63 97/126/97
f 98/130/98 112/190/112 99/138/99
f 99/140/99 65/189/65 98/132/98
f 99/138/99 112/190/112 100/142/100
f 100/144/100 67/192/67 99/140/99
f 100/142/100 112/190/112 101/146/101
f 101/148/101 69/193/69 100/144/100
f 101/146/101 112/190/112 102/150/102
f 102/152/102 71/194/71 101/148/101
f 102/150/102 112/190/112 103/154/103
f 103/156/103 73/195/73 102/152/102
f 103/154/103 112/190/112 104/158/104
f 104/160/104 75/196/75 103/156/103
f 104/158/104 112/190/112 105/162/105
f 105/164/105 77/197/77 104/160/104
f 105/162/105 112/190/112 106/166/106
f 106/168/106 79/198/79 105/164/105
f 106/166/106 112/190/112 107/170/107
f 107/172/107 81/199/81 106/168/106
f 107/170/107 112/190/112 108/188/108
f 108/9/108 112/10/112 83/40/83
f 109/191/109 13/119/13 110/10/110
f 109/205/109 112/201/112 111/204/111
f 110/191/110 61/119/61 112/10/112
f 110/203/110 112/201/112 109/205/109
f 111/190/111 60/118/60 109/8/109
f 112/190/112 96/118/96 111/8/111
f 113/55/113 118/105/118 114/80/114
f 113/55/113 120/78/120 118/105/118
f 114/58/114 36/82/36 113/83/113
f 115/60/115 45/78/45 117/85/117
f 115/3/115 120/78/120 113/55/113
f 116/107/116 114/80/114 118/105/118
f 117/2/117 119/53/119 115/3/115
f 118/56/118 42/79/42 116/81/116
f 119/52/119 51/84/51 120/77/120
f 120/78/120 115/3/115 119/53/119
f 121/13/121 46/54/46 118/56/118
f 121/103/121 118/105/118 120/78/120
f 121/102/121 120/77/120 52/111/52
f 122/16/122 37/57/37 114/58/114
f 122/108/122 114/80/114 116/107/116
f 122/106/122 116/81/116 38/104/38
f 123/27/123 41/53/41 115/60/115
f 123/110/123 113/83/113 35/109/35
f 123/12/123 115/3/115 113/55/113
f 124/4/124 50/59/50 119/52/119
f 124/112/124 117/85/117 49/103/49
f 124/11/124 119/53/119 117/2/117
