mtllib model.mtl
o STAGE008
# o Mesh0
usemtl gxmat1
v 10 3.999998 -4
vn 0 1 -2.384186E-07
vt 17.5 4
v 10 3.999999 -1
vn 1.017134E-07 0.8270714 -0.5620968
vt 17.5 5.5
v 14 3.999998 -4
vn 0 1 -2.384186E-07
vt 19.5 4
v 12 3.999999 -1
vn 0 0.862856 -0.5054498
vt 18.5 5.5
v 14 3.999999 -1
vn -1.017134E-07 0.8270715 -0.5620968
vt 19.5 5.5
f 1/1/1 2/2/2 3/3/3
f 3/3/3 2/2/2 4/4/4
f 3/3/3 4/4/4 5/5/5
v 5 3.999998 -12
vn 0 1 0
vt 15 0
v 5 3.999998 -7
vn 0 1 0
vt 15 2.5
v 25 3.999998 -12
vn 0 1 0
vt 25 0
v 25 3.999998 -7
vn 0 1 0
vt 25 2.5
f 6/6/6 7/7/7 8/8/8
f 8/8/8 7/7/7 9/9/9
v -21 14.00001 -12
vn 0 1 0
vt 2 0
v -25 14.00001 -12
vn 0 1 0
vt 0 0
v -21 14.00001 -9
vn 0 1 0
vt 2 1.5
v -25 14.00001 -9
vn 0 1 0
vt 0 1.5
f 10/10/10 11/11/11 12/12/12
f 12/12/12 11/11/11 13/13/13
v 0 14.00001 12
vn 0 1 0
vt 12.5 12
v -21 14.00001 -9
vn 0 1 0
vt 2 1.5
v -21 14.00001 -12
vn 0 1 0
vt 2 0
f 15/15/15 14/14/14 16/16/16
v 19 14.00001 9
vn -1.371943E-07 0.8628561 -0.5054497
vt 22 10.5
v 19 14.00001 12
vn 0 1 0
vt 22 12
v 12 14.00001 9
vn 0 0.9238794 -0.3826836
vt 18.5 10.5
v 12.17188 14.00001 12
vn 0 1 0
vt 18.58594 12
v 5 14.00001 9
vn 1.038719E-07 0.9238794 -0.3826836
vt 15 10.5
v 0 14.00001 12
vn 0 1 0
vt 12.5 12
v 0 14.00001 9
vn 0 1 0
vt 12.5 10.5
v -21 14.00001 -12
vn 0 1 0
vt 2 0
f 18/18/18 17/17/17 19/19/19
f 18/18/18 19/19/19 20/20/20
f 20/20/20 19/19/19 21/21/21
f 20/20/20 21/21/21 22/22/22
f 22/22/22 21/21/21 23/23/23
f 22/22/22 23/23/23 24/24/24
# End o Mesh0
# o Mesh1
usemtl gxmat2
v 10 1 -4
vn 0 0.7071069 -0.7071066
vt 17.5 4
v 5 1 -4
vn 1.919302E-07 0.7071067 -0.7071068
vt 15 4
v 10 3.999999 -1
vn 1.017134E-07 0.8270714 -0.5620968
vt 17.5 5.5
v 5 14.00001 9
vn 1.038719E-07 0.9238794 -0.3826836
vt 15 10.5
f 25/25/25 26/26/26 27/27/27
f 27/27/27 26/26/26 28/28/28
v 14 3.999999 -1
vn -1.017134E-07 0.8270715 -0.5620968
vt 19.5 5.5
v 19 14.00001 9
vn -1.371943E-07 0.8628561 -0.5054497
vt 22 10.5
v 12 3.999999 -1
vn 0 0.862856 -0.5054498
vt 18.5 5.5
v 12 14.00001 9
vn 0 0.9238794 -0.3826836
vt 18.5 10.5
v 10 3.999999 -1
vn 1.017134E-07 0.8270714 -0.5620968
vt 17.5 5.5
v 5 14.00001 9
vn 1.038719E-07 0.9238794 -0.3826836
vt 15 10.5
f 30/30/30 29/29/29 31/31/31
f 30/30/30 31/31/31 32/32/32
f 32/32/32 31/31/31 33/33/33
f 32/32/32 33/33/33 34/34/34
v 14 3.999999 -1
vn -1.017134E-07 0.8270715 -0.5620968
vt 19.5 5.5
v 19 1 -4
vn -1.919302E-07 0.7071067 -0.7071068
vt 22 4
v 19 14.00001 9
vn -1.371943E-07 0.8628561 -0.5054497
vt 22 10.5
f 36/36/36 35/35/35 37/37/37
v 14 3.999999 -1
vn -1.017134E-07 0.8270715 -0.5620968
vt 19.5 5.5
v 14 1 -4
vn 0 0.7071069 -0.7071066
vt 19.5 4
v 19 1 -4
vn -1.919302E-07 0.7071067 -0.7071068
vt 22 4
f 39/39/39 38/38/38 40/40/40
# End o Mesh1
# o Mesh2
usemtl gxmat3
v 10 0.7 -4
vn 0 -0.7071068 0.7071067
vt 17.5 4.066116
v 14 0.7 -4
vn 0 -0.7071069 0.7071066
vt 19.5 4.066116
v 14 3.699999 -1
vn 0 -0.7071067 0.7071069
vt 19.5 5.553719
v 19 0.7 -4
vn 0 -0.7071068 0.7071068
vt 22 4.066116
f 41/41/41 42/42/42 43/43/43
f 43/43/43 42/42/42 44/44/44
v 5 2.5 -7
vn 0 -1 9.169946E-08
vt 15 2.578513
v 4.999999 2.499999 -12.2
vn 0 -1 9.169946E-08
vt 15 7.152557E-07
v 25 2.5 -7
vn 0 -1 9.169946E-08
vt 25 2.578513
v 25 2.499999 -12.2
vn 0 -1 9.169946E-08
vt 25 7.152557E-07
f 45/45/45 46/46/46 47/47/47
f 47/47/47 46/46/46 48/48/48
v 10 3.699999 -1
vn -2.247829E-07 -0.7071068 0.7071068
vt 17.5 5.553719
v 5 0.7 -4
vn 0 -0.7071068 0.7071068
vt 15 4.066116
v 5 13.70001 9
vn 0 -0.9675382 0.2527247
vt 15 10.5124
f 50/50/50 49/49/49 51/51/51
v 19 13.70001 9
vn 0 -0.9238796 0.3826835
vt 22 10.5124
v 19 0.7 -4
vn 0 -0.7071068 0.7071068
vt 22 4.066116
v 5 13.70001 9
vn 0 -0.9675382 0.2527247
vt 15 10.5124
v 14 3.699999 -1
vn 0 -0.7071067 0.7071069
vt 19.5 5.553719
v 10 3.699999 -1
vn -2.247829E-07 -0.7071068 0.7071068
vt 17.5 5.553719
v 10 0.7 -4
vn 0 -0.7071068 0.7071067
vt 17.5 4.066116
v 5 0.7 -4
vn 0 -0.7071068 0.7071068
vt 15 4.066116
f 53/53/53 52/52/52 54/54/54
f 53/53/53 54/54/54 55/55/55
f 55/55/55 54/54/54 56/56/56
f 55/55/55 56/56/56 57/57/57
f 57/57/57 56/56/56 58/58/58
v 0 13.70001 12
vn 0 -1 0
vt 12.5 12
v 0 13.70001 9
vn 0 -1 0
vt 12.5 10.5124
v -21 13.70001 -12
vn 0 -1 0
vt 2 0.09917378
f 60/60/60 59/59/59 61/61/61
v 19 13.70001 12
vn 0 -1 0
vt 22 12
v 19 13.70001 9
vn 0 -0.9238796 0.3826835
vt 22 10.5124
v 0 13.70001 12
vn 0 -1 0
vt 12.5 12
v 5 13.70001 9
vn 0 -0.9675382 0.2527247
vt 15 10.5124
v 0 13.70001 9
vn 0 -1 0
vt 12.5 10.5124
f 63/63/63 62/62/62 64/64/64
f 63/63/63 64/64/64 65/65/65
f 65/65/65 64/64/64 66/66/66
v -25 13.70001 -12
vn 0 -1 0
vt 0 0.09917378
v -25 13.70001 -9
vn 0 -1 0
vt 0 1.586777
v -21 13.70001 -12
vn 0 -1 0
vt 2 0.09917378
v -21 13.70001 -9
vn 0 -1 0
vt 2 1.586777
v 0 13.70001 12
vn 0 -1 0
vt 12.5 12
f 68/68/68 67/67/67 69/69/69
f 68/68/68 69/69/69 70/70/70
f 70/70/70 69/69/69 71/71/71
# End o Mesh2
# o Mesh3
usemtl gxmat4
v 10 3.999998 -4
vn -1 0 0
vt 0 1
v 10 3.999997 -1
vn -1 0 0
vt 2 0.9999998
v 10 0.999999 -4
vn -1 0 0
vt 0 5.960464E-08
f 73/73/73 72/72/72 74/74/74
v 14 3.999997 -1
vn 1 0 0
vt 2 0.9999998
v 14 3.999998 -4
vn 1 0 0
vt 0 1
v 14 0.999999 -4
vn 1 0 0
vt 0 5.960464E-08
f 76/76/76 75/75/75 77/77/77
# End o Mesh3
# o Mesh4
usemtl gxmat5
v 14 0.999999 -4
vn 0 0 -1
vt 2 5.960464E-08
v 10 0.999999 -4
vn 0 0 -1
vt 0 5.960464E-08
v 14 3.999998 -4
vn 0 0 -1
vt 2 1
v 10 3.999998 -4
vn 0 0 -1
vt 0 1
f 78/78/78 79/79/79 80/80/80
f 80/80/80 79/79/79 81/81/81
# End o Mesh4
# o Mesh5
usemtl gxmat6
v -25.2 14.10001 -12.2
vn 0 1 0
vt 1.960543 1.000029
v -25 14.10001 -12
vn 0 1 0
vt 1.859992 7.158518E-05
v -20.91716 14.10001 -12.2
vn 0 1 0
vt 0 1.000029
v -21 14.10001 -12
vn 0 1 0
vt 0.09523804 7.158518E-05
f 82/82/82 83/83/83 84/84/84
f 84/84/84 83/83/83 85/85/85
v -25 14.10001 -12
vn 0 1 0
vt 0.09523804 7.158518E-05
v -25.2 14.10001 -12.2
vn 0 1 0
vt 0 1.000029
v -25 14.10001 -9
vn 0 1 0
vt 1.859992 7.158518E-05
v -25.2 14.10001 -8.800001
vn 0 1 0
vt 1.960543 1.000029
f 86/86/86 87/87/87 88/88/88
f 88/88/88 87/87/87 89/89/89
v -25 14.10001 -9
vn 0 1 0
vt 0.09523804 7.158518E-05
v -25.2 14.10001 -8.800001
vn 0 1 0
vt 0 1.000029
v -21 14.10001 -9
vn 0 1 0
vt 1.999992 7.158518E-05
v -21.08284 14.10001 -8.800001
vn 0 1 0
vt 1.960543 1.000029
f 90/90/90 91/91/91 92/92/92
f 92/92/92 91/91/91 93/93/93
v 19 14.10001 12
vn 0 1 0
vt 1.960543 1.000029
v 19.2 14.10001 12.2
vn 0 1 0
vt 1.859992 7.158518E-05
v 19 14.10001 8.999998
vn 0 1 0
vt 0 1.000029
v 19.2 14.10001 8.999998
vn 0 1 0
vt 0.09523804 7.158518E-05
f 94/94/94 95/95/95 96/96/96
f 96/96/96 95/95/95 97/97/97
v 4.999999 14.10001 8.799999
vn 0 1 0
vt 1.960543 1.000029
v 0.08284187 14.10001 8.799999
vn 0 1 0
vt 1.859992 7.158518E-05
v 5 14.10001 9
vn 0 1 0
vt 0 1.000029
v 0 14.10001 9
vn 0 1 0
vt 0.09523804 7.158518E-05
f 98/98/98 99/99/99 100/100/100
f 100/100/100 99/99/99 101/101/101
v 4.799999 13.60001 9
vn 0 -1 0
vt 1.960543 1.000029
v 0 13.60001 9
vn 0 -1 0
vt 1.859992 7.158518E-05
v 4.799999 13.60001 8.799999
vn 0 -1 0
vt 0 1.000029
v 0.08284187 13.60001 8.799999
vn 0 -1 0
vt 0.09523804 7.158518E-05
f 102/102/102 103/103/103 104/104/104
f 104/104/104 103/103/103 105/105/105
v 19.2 13.60001 12.2
vn 0 -1 0
vt 1.960543 1.000029
v 19 13.60001 12
vn 0 -1 0
vt 1.859992 7.158518E-05
v 19.2 13.60001 8.999998
vn 0 -1 0
vt 0 1.000029
v 19 13.60001 8.999998
vn 0 -1 0
vt 0.09523804 7.158518E-05
f 106/106/106 107/107/107 108/108/108
f 108/108/108 107/107/107 109/109/109
v -25.2 13.60001 -8.800001
vn 0 -1 0
vt 1.960543 1.000029
v -25 13.60001 -9
vn 0 -1 0
vt 1.859992 7.158518E-05
v -21.08284 13.60001 -8.800001
vn 0 -1 0
vt 0 1.000029
v -21 13.60001 -9
vn 0 -1 0
vt 0.09523804 7.158518E-05
f 110/110/110 111/111/111 112/112/112
f 112/112/112 111/111/111 113/113/113
v -25.2 13.60001 -12.2
vn 0 -1 0
vt 1.960543 1.000029
v -25 13.60001 -12
vn 0 -1 0
vt 1.859992 7.158518E-05
v -25.2 13.60001 -8.800001
vn 0 -1 0
vt 0 1.000029
v -25 13.60001 -9
vn 0 -1 0
vt 0.09523804 7.158518E-05
f 114/114/114 115/115/115 116/116/116
f 116/116/116 115/115/115 117/117/117
v -25 13.60001 -12
vn 0 -1 0
vt 1.960543 1.000029
v -25.2 13.60001 -12.2
vn 0 -1 0
vt 1.859992 7.158518E-05
v -21 13.60001 -12
vn 0 -1 0
vt 0 1.000029
v -20.91716 13.60001 -12.2
vn 0 -1 0
vt 0.09523804 7.158518E-05
f 118/118/118 119/119/119 120/120/120
f 120/120/120 119/119/119 121/121/121
v 25 5.000004 -12.19999
vn 0 1 0
vt 10 1.192093E-06
v 25 5.000004 -12
vn 0 1 0
vt 10 0.9999985
v 15 5.000004 -12.19999
vn 0 1 0
vt 5 1.192093E-06
v 15 5.000004 -12
vn 0 1 0
vt 5 0.9999985
v 4.999999 5.000004 -12.19999
vn 0 1 0
vt -4.768372E-07 1.192093E-06
v 4.999999 5.000004 -12
vn 0 1 0
vt -4.768372E-07 0.9999985
f 123/123/123 122/122/122 124/124/124
f 123/123/123 124/124/124 125/125/125
f 125/125/125 124/124/124 126/126/126
f 125/125/125 126/126/126 127/127/127
# End o Mesh5
# o Mesh6
usemtl gxmat7
v -21 14.10001 -9
vn 0 1 0
vt 5.355157E-06 2.974272E-05
v -21.08284 14.10001 -8.800001
vn 0 1 0
vt 0.05564008 0.9999654
v 0 14.10001 12
vn 0 1 0
vt 19.94437 2.974272E-05
v -0.08284187 14.10001 12.2
vn 0 1 0
vt 20 0.9999738
f 128/128/128 129/129/129 130/130/130
f 130/130/130 129/129/129 131/131/131
v -21.08284 13.60001 -8.800001
vn 0 -1 0
vt 0.05564008 0.9999654
v -21 13.60001 -9
vn 0 -1 0
vt 5.355157E-06 2.974272E-05
v -0.08284187 13.60001 12.2
vn 0 -1 0
vt 20 0.9999738
v 0 13.60001 12
vn 0 -1 0
vt 19.94437 2.974272E-05
f 132/132/132 133/133/133 134/134/134
f 134/134/134 133/133/133 135/135/135
# End o Mesh6
# o Mesh7
usemtl gxmat8
v 0 14.10001 12
vn 0 1 0
vt 0.04295589 3.021955E-05
v -0.08284187 14.10001 12.2
vn 0 1 0
vt -5.489746E-06 1
v 19 14.10001 12
vn 0 1 0
vt 9.89628 3.021955E-05
v 19.2 14.10001 12.2
vn 0 1 0
vt 9.999999 1
f 136/136/136 137/137/137 138/138/138
f 138/138/138 137/137/137 139/139/139
v -0.08284187 13.60001 12.2
vn 0 -1 0
vt -5.489746E-06 1
v 0 13.60001 12
vn 0 -1 0
vt 0.04295589 3.021955E-05
v 19.2 13.60001 12.2
vn 0 -1 0
vt 9.999999 1
v 19 13.60001 12
vn 0 -1 0
vt 9.89628 3.021955E-05
f 140/140/140 141/141/141 142/142/142
f 142/142/142 141/141/141 143/143/143
# End o Mesh7
# o Mesh8
usemtl gxmat9
v 4.799999 1.1 -4
vn 0 1 0
vt -1.102687E-05 0.9999491
v 4.799999 1.1 -4.2
vn 0 1 0
vt -1.102687E-05 -1.573563E-05
v 5 1.1 -4
vn 0 1 0
vt 0.1388797 0.9999491
v 19.2 1.1 -4.2
vn 0 1 0
vt 10 -1.573563E-05
v 19 1.1 -4
vn 0 1 0
vt 9.861111 0.9999491
v 19.2 1.1 -4
vn 0 1 0
vt 10 0.9999491
f 145/145/145 144/144/144 146/146/146
f 145/145/145 146/146/146 147/147/147
f 147/147/147 146/146/146 148/148/148
f 147/147/147 148/148/148 149/149/149
v 19.2 0.5999999 -4
vn 0 -1 0
vt 10 0.9999491
v 19.2 0.5999999 -4.2
vn 0 -1 0
vt 10 -1.573563E-05
v 19 0.5999999 -4
vn 0 -1 0
vt 9.861111 0.9999491
v 4.799999 0.5999999 -4.2
vn 0 -1 0
vt -1.102687E-05 -1.573563E-05
v 5 0.5999999 -4
vn 0 -1 0
vt 0.1388797 0.9999491
v 4.799999 0.5999999 -4
vn 0 -1 0
vt -1.102687E-05 0.9999491
f 151/151/151 150/150/150 152/152/152
f 151/151/151 152/152/152 153/153/153
f 153/153/153 152/152/152 154/154/154
f 153/153/153 154/154/154 155/155/155
# End o Mesh8
# o Mesh9
usemtl gxmat10
v 4.799999 13.90001 8.799999
vn -8.42934E-07 0.7071065 -0.707107
vt 9.999986 0.9998941
v 5 13.90001 8.799999
vn -8.42934E-07 0.7071065 -0.707107
vt 9.999986 4.768372E-06
v 4.799999 1.1 -4
vn -8.42934E-07 0.7071065 -0.707107
vt -8.949864E-06 0.9998941
v 5 1.1 -4
vn -8.42934E-07 0.7071065 -0.707107
vt -7.831131E-06 4.768372E-06
f 156/156/156 157/157/157 158/158/158
f 158/158/158 157/157/157 159/159/159
v 19 14.10001 8.999998
vn 8.429341E-07 0.7071065 -0.7071071
vt 9.999986 0.9998941
v 19.2 14.10001 8.999998
vn 8.429341E-07 0.7071065 -0.7071071
vt 9.999986 4.768372E-06
v 19 1.1 -4
vn 8.429341E-07 0.7071065 -0.7071071
vt -8.949864E-06 0.9998941
v 19.2 1.1 -4
vn 8.429341E-07 0.7071065 -0.7071071
vt -7.831131E-06 4.768372E-06
f 160/160/160 161/161/161 162/162/162
f 162/162/162 161/161/161 163/163/163
v 19.2 13.60001 8.999998
vn -8.429341E-07 -0.7071065 0.7071071
vt 9.999986 4.768372E-06
v 19 13.60001 8.999998
vn -8.429341E-07 -0.7071065 0.7071071
vt 9.999986 0.9998941
v 19.2 0.5999999 -4
vn -8.429341E-07 -0.7071065 0.7071071
vt -7.831131E-06 4.768372E-06
v 19 0.5999999 -4
vn -8.429341E-07 -0.7071065 0.7071071
vt -8.949864E-06 0.9998941
f 164/164/164 165/165/165 166/166/166
f 166/166/166 165/165/165 167/167/167
v 5 13.60001 9
vn 8.42934E-07 -0.7071065 0.707107
vt 9.999986 0.9998941
v 4.799999 13.60001 9
vn 8.42934E-07 -0.7071065 0.707107
vt 9.999986 4.768372E-06
v 5 0.5999999 -4
vn 8.42934E-07 -0.7071065 0.707107
vt -8.949864E-06 0.9998941
v 4.799999 0.5999999 -4
vn 8.42934E-07 -0.7071065 0.707107
vt -7.831131E-06 4.768372E-06
f 168/168/168 169/169/169 170/170/170
f 170/170/170 169/169/169 171/171/171
# End o Mesh9
# o Mesh10
usemtl gxmat11
v 19 13.60001 8.999998
vn -1 0 0
vt 9.812729 6.556511E-06
v 19 14.10001 8.999998
vn -1 0 0
vt 9.999995 0.714304
v 19 0.5999999 -4
vn -1 0 0
vt 0.07490592 -8.225441E-06
v 19 1.1 -4
vn -1 0 0
vt 0.2621718 0.7142891
f 172/172/172 173/173/173 174/174/174
f 174/174/174 173/173/173 175/175/175
v 5 13.90001 8.799999
vn 1 0 0
vt 9.850183 0.7143018
v 5 13.60001 9
vn 1 0 0
vt 9.81273 4.410744E-06
v 5 1.1 -4
vn 1 0 0
vt 0.2621718 0.7142891
v 5 0.5999999 -4
vn 1 0 0
vt 0.07490592 -8.225441E-06
f 176/176/176 177/177/177 178/178/178
f 178/178/178 177/177/177 179/179/179
v 19.2 0.5999999 -4.2
vn 1 0 0
vt -2.525652E-07 0.2857111
v 19.2 1.1 -4.2
vn 1 0 0
vt 0.1872655 1.000008
v 19.2 0.5999999 -4
vn 1 0 0
vt 0.07490616 -8.225441E-06
v 19.2 1.1 -4
vn 1 0 0
vt 0.2621719 0.7142891
v 19.2 13.60001 8.999998
vn 1 0 0
vt 9.812729 6.556511E-06
v 19.2 14.10001 8.999998
vn 1 0 0
vt 9.999995 0.714304
f 180/180/180 181/181/181 182/182/182
f 182/182/182 181/181/181 183/183/183
f 182/182/182 183/183/183 184/184/184
f 184/184/184 183/183/183 185/185/185
v 4.799999 1.1 -4.2
vn -1 0 0
vt 0.1872655 1.000008
v 4.799999 0.5999999 -4.2
vn -1 0 0
vt -2.525652E-07 0.2857111
v 4.799999 1.1 -4
vn -1 0 0
vt 0.2621719 0.7142891
v 4.799999 0.5999999 -4
vn -1 0 0
vt 0.07490616 -8.225441E-06
v 4.799999 13.90001 8.799999
vn -1 0 0
vt 9.850183 0.7143018
v 4.799999 13.60001 9
vn -1 0 0
vt 9.81273 4.410744E-06
f 186/186/186 187/187/187 188/188/188
f 188/188/188 187/187/187 189/189/189
f 188/188/188 189/189/189 190/190/190
f 190/190/190 189/189/189 191/191/191
# End o Mesh10
# o Mesh11
usemtl gxmat12
v -20.91716 14.10001 -12.2
vn 0 1 0
vt -6.267967E-06 0.0001104474
v -21 14.10001 -12
vn 0 1 0
vt 0.02781103 1.000052
v 0.08284187 14.10001 8.799999
vn 0 1 0
vt 9.972176 0.0001104474
v 0 14.10001 9
vn 0 1 0
vt 9.999993 1.000052
f 192/192/192 193/193/193 194/194/194
f 194/194/194 193/193/193 195/195/195
v -21 13.60001 -12
vn 0 -1 0
vt 0.02781103 1.000052
v -20.91716 13.60001 -12.2
vn 0 -1 0
vt -6.267967E-06 0.0001104474
v 0 13.60001 9
vn 0 -1 0
vt 9.999993 1.000052
v 0.08284187 13.60001 8.799999
vn 0 -1 0
vt 9.972176 0.0001104474
f 196/196/196 197/197/197 198/198/198
f 198/198/198 197/197/197 199/199/199
# End o Mesh11
# o Mesh12
usemtl gxmat13
v 4.799999 13.60001 8.799999
vn 0 0 -1
vt 13.51351 -3.576279E-07
v 0.08284187 13.60001 8.799999
vn 0 0 -1
vt 11.38867 -3.576279E-07
v 4.799999 13.90001 8.799999
vn 0 0 -1
vt 13.51351 0.5999983
v 0.08284187 14.10001 8.799999
vn 0 0 -1
vt 11.38867 1
v 4.999999 14.10001 8.799999
vn 0 0 -1
vt 13.6036 1
f 200/200/200 201/201/201 202/202/202
f 202/202/202 201/201/201 203/203/203
f 202/202/202 203/203/203 204/204/204
v 19.2 13.60001 12.2
vn 0 0 1
vt 20 -3.576279E-07
v 19.2 14.10001 12.2
vn 0 0 1
vt 20 1
v -0.08284187 13.60001 12.2
vn 0 0 1
vt 11.31404 -3.576279E-07
v -0.08284187 14.10001 12.2
vn 0 0 1
vt 11.31404 1
f 205/205/205 206/206/206 207/207/207
f 207/207/207 206/206/206 208/208/208
v -21.08284 13.60001 -8.800001
vn 0 0 1
vt 1.854576 -3.576279E-07
v -21.08284 14.10001 -8.800001
vn 0 0 1
vt 1.854576 1
v -25.2 13.60001 -8.800001
vn 0 0 1
vt 0 -3.576279E-07
v -25.2 14.10001 -8.800001
vn 0 0 1
vt 0 1
f 209/209/209 210/210/210 211/211/211
f 211/211/211 210/210/210 212/212/212
v -25.2 13.60001 -12.2
vn 0 0 -1
vt 0 -3.576279E-07
v -25.2 14.10001 -12.2
vn 0 0 -1
vt 0 1
v -20.91716 13.60001 -12.2
vn 0 0 -1
vt 1.929208 -3.576279E-07
v -20.91716 14.10001 -12.2
vn 0 0 -1
vt 1.929208 1
f 213/213/213 214/214/214 215/215/215
f 215/215/215 214/214/214 216/216/216
v 4.799999 13.90001 8.799999
vn 0 0 -1
vt 13.51351 0.5999983
v 5 13.90001 8.799999
vn 0 0 -1
vt 13.6036 0.5999983
v 4.999999 14.10001 8.799999
vn 0 0 -1
vt 13.6036 1
f 218/218/218 217/217/217 219/219/219
# End o Mesh12
# o Mesh13
usemtl gxmat14
v 5 13.60001 9
vn 1 0 0
vt 6.081967 -3.576279E-07
v 5 13.90001 8.799999
vn 1 2.384177E-06 -2.384177E-06
vt 6.02459 0.5999983
v 5 14.10001 9
vn 1 2.384177E-06 -2.384177E-06
vt 6.081967 1
v 4.999999 14.10001 8.799999
vn 1 4.768353E-06 -4.768353E-06
vt 6.02459 1
f 220/220/220 221/221/221 222/222/222
f 222/222/222 221/221/221 223/223/223
v 19.2 13.60001 8.999998
vn 1 0 0
vt 6.081966 -3.576279E-07
v 19.2 14.10001 8.999998
vn 1 0 0
vt 6.081966 1
v 19.2 13.60001 12.2
vn 1 0 0
vt 7 -3.576279E-07
v 19.2 14.10001 12.2
vn 1 0 0
vt 7 1
f 224/224/224 225/225/225 226/226/226
f 226/226/226 225/225/225 227/227/227
v -25.2 13.60001 -8.800001
vn -1 0 0
vt 0.9754097 -3.576279E-07
v -25.2 14.10001 -8.800001
vn -1 0 0
vt 0.9754097 1
v -25.2 13.60001 -12.2
vn -1 0 0
vt 0 -3.576279E-07
v -25.2 14.10001 -12.2
vn -1 0 0
vt 0 1
f 228/228/228 229/229/229 230/230/230
f 230/230/230 229/229/229 231/231/231
v 25 5.000004 -12
vn 0 0 1
vt 7 1
v 25 3.999999 -12
vn 0 0 1
vt 7 -7.152557E-07
v 15 5.000004 -12
vn 0 0 1
vt 3.5 1
v 15 3.999999 -12
vn 0 0 1
vt 3.5 -7.152557E-07
v 4.999999 5.000004 -12
vn 0 0 1
vt -3.33786E-07 1
v 4.999999 3.999999 -12
vn 0 0 1
vt -3.33786E-07 -7.152557E-07
f 233/233/233 232/232/232 234/234/234
f 233/233/233 234/234/234 235/235/235
f 235/235/235 234/234/234 236/236/236
f 235/235/235 236/236/236 237/237/237
# End o Mesh13
# o Mesh14
usemtl gxmat15
v -20.91716 13.60001 -12.2
vn 0.7071068 0 -0.7071068
vt -1.050487E-05 -3.576279E-07
v -20.91716 14.10001 -12.2
vn 0.7071068 0 -0.7071068
vt -1.050487E-05 1
v 0.08284187 13.60001 8.799999
vn 0.7071068 0 -0.7071068
vt 16.71298 -3.576279E-07
v 0.08284187 14.10001 8.799999
vn 0.7071068 0 -0.7071068
vt 16.71298 1
f 238/238/238 239/239/239 240/240/240
f 240/240/240 239/239/239 241/241/241
v -0.08284187 13.60001 12.2
vn -0.7071068 0 0.7071068
vt 18 -3.576279E-07
v -0.08284187 14.10001 12.2
vn -0.7071068 0 0.7071068
vt 18 1
v -21.08284 13.60001 -8.800001
vn -0.7071068 0 0.7071068
vt 1.287016 -3.576279E-07
v -21.08284 14.10001 -8.800001
vn -0.7071068 0 0.7071068
vt 1.287016 1
f 242/242/242 243/243/243 244/244/244
f 244/244/244 243/243/243 245/245/245
# End o Mesh14
# o Mesh15
usemtl gxmat16
v 5 1.1 -4
vn 0 0 1
vt 0.1388797 0.9999984
v 5 0.5999999 -4
vn 0 0 1
vt 0.1388797 -3.576279E-07
v 19 1.1 -4
vn 0 0 1
vt 9.861111 0.9999984
v 19 0.5999999 -4
vn 0 0 1
vt 9.861111 -3.576279E-07
f 246/246/246 247/247/247 248/248/248
f 248/248/248 247/247/247 249/249/249
v 4.799999 0.5999999 -4.2
vn 0 0 -1
vt -1.102687E-05 -3.576279E-07
v 4.799999 1.1 -4.2
vn 0 0 -1
vt -1.102687E-05 0.9999984
v 19.2 0.5999999 -4.2
vn 0 0 -1
vt 10 -3.576279E-07
v 19.2 1.1 -4.2
vn 0 0 -1
vt 10 0.9999984
f 250/250/250 251/251/251 252/252/252
f 252/252/252 251/251/251 253/253/253
# End o Mesh15
# o Mesh16
usemtl gxmat17
v 19 14.10001 12
vn 0 0 -1
vt 19.99999 1
v 19 13.60001 12
vn 0 0 -1
vt 19.99999 -3.576279E-07
v 0 14.10001 12
vn 0 0 -1
vt 11.36363 1
v 0 13.60001 12
vn 0 0 -1
vt 11.36363 -3.576279E-07
f 254/254/254 255/255/255 256/256/256
f 256/256/256 255/255/255 257/257/257
v -21 14.10001 -9
vn 0 0 -1
vt 1.818172 1
v -21 13.60001 -9
vn 0 0 -1
vt 1.818172 -3.576279E-07
v -25 14.10001 -9
vn 0 0 -1
vt -9.661033E-06 1
v -25 13.60001 -9
vn 0 0 -1
vt -9.661033E-06 -3.576279E-07
f 258/258/258 259/259/259 260/260/260
f 260/260/260 259/259/259 261/261/261
v -25 14.10001 -12
vn 0 0 1
vt -9.661033E-06 1
v -25 13.60001 -12
vn 0 0 1
vt -9.661033E-06 -3.576279E-07
v -21 14.10001 -12
vn 0 0 1
vt 1.818172 1
v -21 13.60001 -12
vn 0 0 1
vt 1.818172 -3.576279E-07
f 262/262/262 263/263/263 264/264/264
f 264/264/264 263/263/263 265/265/265
v 0 13.60001 9
vn 0 0 1
vt 11.36363 -3.576279E-07
v 0 14.10001 9
vn 0 0 1
vt 11.36363 1
v 4.799999 13.60001 9
vn 0 0 1
vt 13.54544 -3.576279E-07
v 5 14.10001 9
vn 0 0 1
vt 13.63635 1
v 5 13.60001 9
vn 0 0 1
vt 13.63635 -3.576279E-07
f 267/267/267 266/266/266 268/268/268
f 267/267/267 268/268/268 269/269/269
f 269/269/269 268/268/268 270/270/270
# End o Mesh16
# o Mesh17
usemtl gxmat18
v 0 14.10001 12
vn 0.7071068 0 -0.7071068
vt 19.99998 1
v 0 13.60001 12
vn 0.7071068 0 -0.7071068
vt 19.99998 -3.576279E-07
v -21 14.10001 -9
vn 0.7071068 0 -0.7071068
vt 1.333318 1
v -21 13.60001 -9
vn 0.7071068 0 -0.7071068
vt 1.333318 -3.576279E-07
f 271/271/271 272/272/272 273/273/273
f 273/273/273 272/272/272 274/274/274
v -21 14.10001 -12
vn -0.7071068 0 0.7071068
vt -1.526408E-05 1
v -21 13.60001 -12
vn -0.7071068 0 0.7071068
vt -1.526408E-05 -3.576279E-07
v 0 14.10001 9
vn -0.7071068 0 0.7071068
vt 18.66665 1
v 0 13.60001 9
vn -0.7071068 0 0.7071068
vt 18.66665 -3.576279E-07
f 275/275/275 276/276/276 277/277/277
f 277/277/277 276/276/276 278/278/278
# End o Mesh17
# o Mesh18
usemtl gxmat19
v 19 14.10001 8.999998
vn -1 0 0
vt 6.125001 1
v 19 13.60001 8.999998
vn -1 0 0
vt 6.125001 -3.576279E-07
v 19 14.10001 12
vn -1 0 0
vt 7.000002 1
v 19 13.60001 12
vn -1 0 0
vt 7.000002 -3.576279E-07
f 279/279/279 280/280/280 281/281/281
f 281/281/281 280/280/280 282/282/282
v -25 14.10001 -9
vn 1 0 0
vt 0.8749987 1
v -25 13.60001 -9
vn 1 0 0
vt 0.8749987 -3.576279E-07
v -25 14.10001 -12
vn 1 0 0
vt -1.763026E-06 1
v -25 13.60001 -12
vn 1 0 0
vt -1.763026E-06 -3.576279E-07
f 283/283/283 284/284/284 285/285/285
f 285/285/285 284/284/284 286/286/286
# End o Mesh18
# o Mesh19
usemtl gxmat20
v 25 5.000004 -12
vn 1 0 0
vt 0.07692195 1
v 25 5.000004 -12.19999
vn 1 0 0
vt 2.200788E-06 1
v 25 2.499999 -12.2
vn 1 0 0
vt 0 0
f 288/288/288 287/287/287 289/289/289
v 25 2.499999 -6.999999
vn 1 0 0
vt 2 0
v 25 3.999999 -6.999999
vn 1 0 0
vt 2 0.5999987
v 25 2.499999 -12.2
vn 1 0 0
vt 0 0
v 25 3.999999 -12
vn 1 0 0
vt 0.07692195 0.5999987
v 25 5.000004 -12
vn 1 0 0
vt 0.07692195 1
f 291/291/291 290/290/290 292/292/292
f 291/291/291 292/292/292 293/293/293
f 293/293/293 292/292/292 294/294/294
v 4.999999 5.000004 -12.19999
vn -1 0 0
vt 2.200788E-06 1
v 4.999999 5.000004 -12
vn -1 0 0
vt 0.07692195 1
v 4.999999 3.999999 -12
vn -1 0 0
vt 0.07692195 0.5999987
f 296/296/296 295/295/295 297/297/297
v 4.999999 3.999999 -6.999999
vn -1 0 0
vt 2 0.5999987
v 4.999999 2.499999 -6.999999
vn -1 0 0
vt 2 0
v 4.999999 3.999999 -12
vn -1 0 0
vt 0.07692195 0.5999987
v 4.999999 2.499999 -12.2
vn -1 0 0
vt 0 0
v 4.999999 5.000004 -12.19999
vn -1 0 0
vt 2.200788E-06 1
f 299/299/299 298/298/298 300/300/300
f 299/299/299 300/300/300 301/301/301
f 301/301/301 300/300/300 302/302/302
# End o Mesh19
# o Mesh20
usemtl gxmat21
v 4.999999 2.499999 -6.999999
vn 0 0 1
vt -3.33786E-07 0
v 25 2.499999 -6.999999
vn 0 0 1
vt 7 0
v 4.999999 3.999999 -6.999999
vn 0 0 1
vt 0 1
v 25 3.999999 -6.999999
vn 0 0 1
vt 7 1
f 303/303/303 304/304/304 305/305/305
f 305/305/305 304/304/304 306/306/306
v 25 2.499999 -12.2
vn 0 2.288813E-06 -1
vt 7 0
v 25 5.000004 -12.19999
vn 0 2.288813E-06 -1
vt 7 2
v 15 2.499999 -12.2
vn 0 2.288813E-06 -1
vt 3.5 0
v 15 5.000004 -12.19999
vn 0 2.288813E-06 -1
vt 3.5 2
v 4.999999 2.499999 -12.2
vn 0 2.288813E-06 -1
vt -3.33786E-07 0
v 4.999999 5.000004 -12.19999
vn 0 2.288813E-06 -1
vt -3.33786E-07 2
f 308/308/308 307/307/307 309/309/309
f 308/308/308 309/309/309 310/310/310
f 310/310/310 309/309/309 311/311/311
f 310/310/310 311/311/311 312/312/312
# End o Mesh20
# o Mesh21
usemtl gxmat22
v 12 14.02 9.000002
vn 0 1 0
vt 0.5 0
v 14 14.02 11
vn 0 1 0
vt 1 0.6666666
v 13 14.02 11
vn 0 1 0
vt 0.75 0.6666666
f 314/314/314 313/313/313 315/315/315
v 10 14.02 11
vn 0 1 0
vt 0 0.6666666
v 12 14.02 9.000002
vn 0 1 0
vt 0.5 0
v 11 14.02 11
vn 0 1 0
vt 0.25 0.6666666
v 13 14.02 11
vn 0 1 0
vt 0.75 0.6666666
v 11 14.02 12
vn 0 1 0
vt 0.25 1
v 13 14.02 12
vn 0 1 0
vt 0.75 1
f 317/317/317 316/316/316 318/318/318
f 317/317/317 318/318/318 319/319/319
f 319/319/319 318/318/318 320/320/320
f 319/319/319 320/320/320 321/321/321
# End o Mesh21
# End o STAGE008
