# Exported from Wings 3D 2.2.9
mtllib shape.mtl
o cone2
#24 vertices, 44 faces
v 1.00000000 0.88235294 0.0000000e+0
v 0.92387953 0.88235294 0.38268343
v 0.70710678 0.88235294 0.70710678
v 0.38268343 0.88235294 0.92387953
v 6.1232340e-17 0.88235294 1.00000000
v -0.38268343 0.88235294 0.92387953
v -0.70710678 0.88235294 0.70710678
v -0.92387953 0.88235294 0.38268343
v -1.00000000 0.88235294 1.2246468e-16
v -0.92387953 0.88235294 -0.38268343
v -0.70710678 0.88235294 -0.70710678
v -0.38268343 0.88235294 -0.92387953
v -1.8369702e-16 0.88235294 -1.00000000
v 0.38268343 0.88235294 -0.92387953
v 0.70710678 0.88235294 -0.70710678
v 0.92387953 0.88235294 -0.38268343
v 0.0000000e+0 4.88235294 0.0000000e+0
v -3.84418074 0.88235294 0.70710678
v -3.51975739 0.88235294 0.92387953
v -3.13707396 4.88235294 0.0000000e+0
v -3.13707396 4.88235294 1.79989618
v -3.51975739 0.88235294 2.72377572
v -0.38268343 0.88235294 2.72377572
v 0.0000000e+0 4.88235294 1.79989618
vt 0.0000000e+0 0.0000000e+0
vt 0.0000000e+0 0.34188270
vt 0.0000000e+0 1.00000000
vt 3.4694470e-17 0.33687306
vt 3.1483130e-2 0.33687306
vt 3.1843503e-2 1.5084079e-3
vt 3.1843503e-2 1.5084079e-3
vt 6.3687007e-2 0.0000000e+0
vt 6.3687007e-2 1.5084079e-3
vt 6.3687007e-2 0.33687306
vt 6.8620014e-2 0.34188270
vt 6.8620014e-2 0.67169288
vt 7.5484393e-2 0.67169288
vt 9.5530510e-2 0.0000000e+0
vt 9.5530510e-2 0.33687306
vt 9.5530510e-2 0.0000000e+0
vt 9.5530510e-2 0.33687306
vt 0.10010314 0.33687306
vt 0.12737401 1.5084079e-3
vt 0.12737401 0.33687306
vt 0.12737401 0.0000000e+0
vt 0.13724003 0.67169288
vt 0.14705821 1.00000000
vt 0.15921752 0.33687306
vt 0.15921752 1.5084079e-3
vt 0.15921752 0.0000000e+0
vt 0.17437691 0.33687306
vt 0.19106102 1.5084079e-3
vt 0.19106102 1.5084079e-3
vt 0.20586004 0.34188270
vt 0.20586004 0.67169288
vt 0.22254260 0.77110774
vt 0.22254260 0.67169288
vt 0.22254260 0.67169288
vt 0.22290452 1.5084079e-3
vt 0.22290452 0.0000000e+0
vt 0.22290452 0.33687306
vt 0.22876193 0.73984108
vt 0.22876193 0.80237440
vt 0.24299693 0.33687306
vt 0.24647307 0.82888099
vt 0.24647307 0.71333448
vt 0.24904920 0.68940402
vt 0.25474803 0.0000000e+0
vt 0.25474803 0.0000000e+0
vt 0.25474803 0.33687306
vt 0.27297966 0.84659213
vt 0.27297966 0.69562334
vt 0.27448006 0.34188270
vt 0.27448006 0.67169288
vt 0.28601469 0.33541892
vt 0.30424632 0.85281146
vt 0.30424632 0.68940402
vt 0.31161694 0.33687306
vt 0.33551298 0.84659213
vt 0.33551298 0.69562334
vt 0.34310007 0.34188270
vt 0.34310007 0.67169288
vt 0.36201958 0.71333448
vt 0.36201958 0.82888099
vt 0.37973072 0.73984108
vt 0.37973072 0.80237440
vt 0.38023696 0.33687306
vt 0.38595004 0.77110774
vt 0.41172009 0.34188270
vt 0.41172009 0.34188270
vt 0.44320322 0.33687306
vt 0.47885321 0.67169288
vt 0.48034010 0.67169288
vt 0.50535980 0.67169288
vt 0.50535980 0.68940402
vt 0.50535980 0.81875109
vt 0.50535980 0.81875109
vt 0.50535980 0.96580930
vt 0.51105863 5.5511151e-17
vt 0.54232529 0.33541892
vt 0.54232529 5.0096418e-3
vt 0.57380842 0.0000000e+0
vt 0.61094531 0.33188207
vt 0.61094531 0.33481982
vt 0.61094531 0.33188207
vt 0.66871856 8.3266727e-17
vt 0.68642970 0.66018919
vt 0.75800352 0.33188207
vt 0.76167041 0.96580930
vt 0.76167041 0.67169288
vt 0.76167041 0.81875109
vt 0.76167041 0.81875109
vt 0.83348791 0.66018919
vt 0.86725591 0.33188207
vt 0.92502917 0.0000000e+0
vn 0.96423086 -0.26506387 0.0000000e+0
vn 0.55663436 -0.79812138 0.23056550
vn 0.42602950 -0.79812138 0.42602950
vn 0.23056550 -0.79812138 0.55663436
vn -8.7776596e-18 -0.79812138 0.60249669
vn 0.33638957 -0.92477114 0.17787744
vn -0.15045448 -0.95204734 -0.26640064
vn -0.72150143 -0.62459665 0.29885568
vn -0.96423086 -0.26506387 2.2476313e-16
vn -0.55663436 -0.79812138 -0.23056550
vn -0.42602950 -0.79812138 -0.42602950
vn -0.23056550 -0.79812138 -0.55663436
vn -8.7776596e-17 -0.79812138 -0.60249669
vn 0.23056550 -0.79812138 -0.55663436
vn 0.42602950 -0.79812138 -0.42602950
vn 0.72150143 -0.62459665 -0.29885568
vn 0.31279949 0.87679670 -0.36521778
vn -0.49287637 -0.85491462 -0.16184523
vn -0.56853824 -0.80239976 0.18143565
vn -0.55508577 0.71787571 -0.42015980
vn -0.75700724 0.53822474 0.37047830
vn -0.44540021 -0.20343646 0.87191299
vn 0.42688014 -0.80199263 0.41782911
vn 0.55502510 0.62993565 0.54325704
g cone2_cone2_auv
usemtl cone2_auv
s 1
f 1/45/1 17/46/17 2/35/2
f 2/38/2 16/39/16 1/32/1
f 2/5/2 17/12/17 3/2/3
f 3/42/3 15/41/15 2/38/2
f 3/65/3 17/58/17 4/63/4
f 4/48/4 14/47/14 3/42/3
f 4/29/4 17/24/17 5/26/5
f 5/53/5 13/52/13 4/48/4
f 5/36/5 17/37/17 6/28/6
f 6/56/6 12/55/12 5/53/5
f 6/34/6 19/68/19 7/43/7
f 6/74/6 23/72/23 19/85/19
f 7/59/7 11/60/11 6/56/6
f 7/57/7 17/50/17 8/54/8
f 7/82/7 20/90/20 17/79/17
f 8/61/8 10/62/10 7/59/7
f 8/25/8 17/20/17 9/21/9
f 9/64/9 10/62/10 8/61/8
f 9/14/9 17/15/17 10/9/10
f 10/18/10 17/22/17 11/11/11
f 11/60/11 7/59/7 10/62/10
f 11/49/11 17/31/17 12/40/12
f 12/55/12 6/56/6 11/60/11
f 12/6/12 17/4/17 13/1/13
f 13/52/13 5/53/5 12/55/12
f 13/8/13 17/10/17 14/7/14
f 14/47/14 4/48/4 13/52/13
f 14/78/14 17/80/17 15/77/15
f 15/41/15 3/42/3 14/47/14
f 15/30/15 17/22/17 16/27/16
f 16/39/16 2/38/2 15/41/15
f 16/19/16 17/17/17 1/16/1
f 17/89/17 24/83/24 6/84/6
f 18/71/18 7/43/7 19/68/19
f 18/91/18 20/90/20 7/82/7
f 19/67/19 20/69/20 18/66/18
f 19/13/19 21/23/21 20/3/20
f 20/73/20 24/86/24 17/88/17
f 21/23/21 19/13/19 22/33/22
f 21/70/21 24/86/24 20/73/20
f 22/87/22 19/85/19 23/72/23
f 22/44/22 24/76/24 21/51/21
f 23/81/23 6/84/6 24/83/24
f 23/75/23 24/76/24 22/44/22
